
<svg width="15" height="15" viewBox="0 0 15 15" fill="none" xmlns="http://www.w3.org/2000/svg">
  <path
    fill-rule="evenodd"
    clip-rule="evenodd"
    d="M0 0 C3.16034101 2.41183919 4.28962406 4.16269763 5 8 C8.57636322 71.52101926 -3.79073773 150.22480111 -47.1875 199.7109375 C-50.0502683 202.88220909 -53.01457748 205.94433224 -56 209 C-56.5878125 209.6496875 -57.175625 210.299375 -57.78125 210.96875 C-81.07454885 236.16354264 -116.904491 246.17965381 -150 248 C-157.96962503 248.25461591 -165.81522183 247.70829142 -173.75 247 C-175.9112253 246.80983273 -178.07268075 246.62226019 -180.234375 246.4375 C-181.17506836 246.35371094 -182.11576172 246.26992188 -183.08496094 246.18359375 C-186.39594092 245.97506302 -189.6833334 245.97111457 -193 246 C-208.8945515 291.15762553 -218.52410317 337.56210127 -219.26171875 385.58203125 C-219.28762589 387.21252663 -219.28762589 387.21252663 -219.3140564 388.8759613 C-219.39346953 394.30762341 -219.44148404 399.7374383 -219.44628906 405.16967773 C-219.46266755 407.17041199 -219.47925922 409.17114452 -219.49609375 411.171875 C-219.48777023 412.09124344 -219.47944672 413.01061188 -219.47087097 413.95783997 C-219.52094972 418.16700727 -219.63110411 420.40950203 -221.90649414 424.05175781 C-224.410445 426.38196514 -225.40904379 426.9343382 -228.8125 427.3125 C-232.7307645 426.92835642 -234.21293267 425.70743683 -237 423 C-238.46874231 420.06251538 -238.16586441 417.41156958 -238.2109375 414.1328125 C-238.23657878 412.68927729 -238.26297898 411.24575541 -238.29003906 409.80224609 C-238.30329224 409.03998718 -238.31654541 408.27772827 -238.3302002 407.49237061 C-238.98593912 372.84094612 -243.92850074 339.89966843 -255 307 C-255.53882813 307.0721875 -256.07765625 307.144375 -256.6328125 307.21875 C-287.16234206 310.66408876 -315.38270228 306.55941806 -339.97119141 287.22802734 C-370.99135823 261.84955605 -382.28274736 218.94073744 -386.25 180.75 C-387.00330896 172.51192094 -387.23212335 164.26960942 -387.3125 156 C-387.33022461 154.88334961 -387.34794922 153.76669922 -387.36621094 152.61621094 C-387.36524414 151.56723633 -387.36427734 150.51826172 -387.36328125 149.4375 C-387.36626221 148.50808594 -387.36924316 147.57867187 -387.37231445 146.62109375 C-386.92019364 143.43816324 -385.88490193 141.5872829 -384 139 C-380.2219207 136.48128046 -378.43705998 136.86357565 -374.09765625 137.44921875 C-372 138 -372 138 -369.9375 139.9375 C-369 142 -369 142 -369 144 C-362.62242348 146.23955572 -356.21285544 148.03590116 -349.6484375 149.63671875 C-347.65315201 150.1316462 -345.65804089 150.62727706 -343.66308594 151.12353516 C-342.1205011 151.50629608 -342.1205011 151.50629608 -340.54675293 151.89678955 C-280.32500266 166.90992843 -280.32500266 166.90992843 -261 185 C-260.07832031 185.84304687 -259.15664063 186.68609375 -258.20703125 187.5546875 C-241.72289505 203.26022078 -233.6593995 223.94122728 -232.87890625 246.5 C-232.60125702 259.21950791 -233.98005271 271.58184178 -236.6875 284 C-238.53750776 293.02234554 -237.57150649 298.6890028 -234.4375 307.27734375 C-234.20353516 307.92505737 -233.96957031 308.572771 -233.72851562 309.2401123 C-233.15470795 310.82759808 -232.57767746 312.41391832 -232 314 C-231.8047876 313.0613208 -231.6095752 312.1226416 -231.40844727 311.15551758 C-220.72246829 260.09414542 -220.72246829 260.09414542 -209.8984375 237.04296875 C-208.07988323 230.88360451 -210.26813038 224.5808532 -211.71411133 218.49121094 C-221.18722229 178.30310372 -222.56649301 133.24029567 -200.3125 96.8125 C-195.63653466 89.43075444 -190.12828758 83.19348213 -184 77 C-183.35804688 76.29746094 -182.71609375 75.59492187 -182.0546875 74.87109375 C-154.14693085 44.96992591 -109.41842753 34.24050376 -71.18359375 24.8203125 C-70.04034637 24.53788696 -68.897099 24.25546143 -67.71920776 23.96447754 C-61.9460461 22.54009387 -56.17008474 21.12962168 -50.38769531 19.74316406 C-28.18344433 15.32867083 -28.18344433 15.32867083 -11.4375 1.75 C-8.28205462 -2.09141177 -4.38242628 -0.99950073 0 0 Z M-18.85888672 29.72631836 C-28.22589201 33.01504424 -37.74299798 35.56174233 -47.375 37.9375 C-48.06278534 38.10759583 -48.75057068 38.27769165 -49.459198 38.45294189 C-56.70917786 40.24285478 -63.96755249 41.99454704 -71.234375 43.71484375 C-100.8753162 50.80221457 -132.34972799 59.30913441 -157 78 C-157.85207031 78.63292969 -158.70414063 79.26585937 -159.58203125 79.91796875 C-181.46749037 96.76069535 -194.32575403 119.30447329 -198.6640625 146.3984375 C-201.23356873 166.29717183 -199.82656837 186.3379519 -196 206 C-195.34 206 -194.68 206 -194 206 C-192.58521794 203.79550124 -191.28246106 201.59258427 -190 199.3125 C-182.7893334 186.93228142 -173.8775084 176.3275962 -164 166 C-163.11441406 165.0615625 -162.22882813 164.123125 -161.31640625 163.15625 C-136.74884517 137.76858166 -136.74884517 137.76858166 -123.9375 137.5 C-121 138 -121 138 -118 139 C-117.72172885 140.55771352 -117.47858056 142.12172314 -117.25 143.6875 C-117.04117188 144.99267578 -117.04117188 144.99267578 -116.828125 146.32421875 C-117.06561273 150.02147092 -118.43233716 151.38918316 -121 154 C-123.33984375 155.6328125 -123.33984375 155.6328125 -125.9375 157.125 C-151.33203943 172.77316241 -171.26083119 198.29280366 -184 225 C-184 225.66 -184 226.32 -184 227 C-176.40184785 230.79907607 -165.3604971 229.24312143 -157 229.25 C-155.89484543 229.25101212 -155.89484543 229.25101212 -154.7673645 229.25204468 C-143.88633115 229.23620879 -133.56862475 228.82437386 -123 226 C-122.34902344 225.83371094 -121.69804687 225.66742188 -121.02734375 225.49609375 C-110.32702871 222.71277481 -100.65390572 218.3444107 -91 213 C-90.01257813 212.45601562 -89.02515625 211.91203125 -88.0078125 211.3515625 C-52.93132085 190.50900949 -34.08820718 149.32103399 -24.03295898 111.48974609 C-17.1330086 84.13784695 -13.87519715 56.15720492 -13 28 C-15.04791012 28 -16.94813703 29.04479689 -18.85888672 29.72631836 Z M-368 164 C-370.21284231 197.80731311 -358.77472751 237.89893089 -337 264 C-323.59017848 279.1702681 -305.57343051 288.08024393 -285.34765625 289.87890625 C-277.80867735 290.26777205 -270.46391215 290.14829418 -263 289 C-266.60758841 280.80587958 -271.39367385 273.95479998 -277 267 C-278.03447266 265.71416016 -278.03447266 265.71416016 -279.08984375 264.40234375 C-285.84950596 256.45942596 -294.51018622 248.52214131 -304 244 C-306.09679403 241.30412197 -305.99510821 239.907056 -305.8125 236.4375 C-304.6847906 231.66642175 -304.6847906 231.66642175 -302 230 C-295.9746226 228.46840966 -293.26142133 229.88988779 -288.07421875 232.92578125 C-282.30843492 236.81603692 -277.15623444 241.34563904 -272 246 C-271.34257812 246.57363281 -270.68515625 247.14726562 -270.0078125 247.73828125 C-263.69929463 253.57894253 -258.96196642 261.02812313 -254 268 C-253.34 267.67 -252.68 267.34 -252 267 C-247.82542081 248.21439366 -251.85371056 226.64826081 -262.0859375 210.5390625 C-268.84606303 201.57154904 -277.09265879 194.30074307 -287 189 C-287.58281738 188.68611328 -288.16563477 188.37222656 -288.76611328 188.04882812 C-309.50711251 177.07679141 -332.82123394 172.37609888 -355.4453125 166.8203125 C-356.13397903 166.6508461 -356.82264557 166.4813797 -357.53218079 166.30677795 C-361.00841022 165.45892569 -364.48490453 164.66950169 -368 164 Z " fill="#000000" transform="translate(447,43)"
    fill="#424242"
  />
</svg>